# xmcd
#
# Track frame offsets: 
#        150
#        11368
#        25319
#        34717
#        45757
#        60173
#        72074
#        84955
#        97296
#        109978
#        121501
#        132973
#        145041
#        156209
#        164655
#        176683
#        189576
#        198168
#        211903
#        225664
#
# Disc length: 3157 seconds
#
# Revision: 0
# Processed by: cddbd v1.5.2PL0 Copyright (c) Steve Scherf et al.
# Submitted via: ExactAudioCopy v1.1
#
DISCID=fd0c5314
DTITLE=Diddley, Bo - Diddley, Bo - The Absolute Essential Collection  
DTITLE=cd2
DYEAR=2015
DGENRE=Blues
TTITLE0=Who Do You Love
TTITLE1=Oh yea
TTITLE2=Crackin' Up
TTITLE3=The great grandfather
TTITLE4=Say man
TTITLE5=She's Alright
TTITLE6=You don't love me (You don't care)
TTITLE7=Don't Let It Go (Hold On To What You Got)
TTITLE8=Mumblin' Guitar
TTITLE9=Little girl
TTITLE10=Bo's guitar
TTITLE11=Walkin' And Talkin'
TTITLE12=Craw-Dad
TTITLE13=Gunslinger
TTITLE14=Run Diddley Daddy
TTITLE15=The Story Of Bo Diddley
TTITLE16=Let Me In
TTITLE17=Ride On Josephine
TTITLE18=Doing The Crawdaddy
TTITLE19=Sixteen Tons
EXTD=
EXTT0=
EXTT1=
EXTT2=
EXTT3=
EXTT4=
EXTT5=
EXTT6=
EXTT7=
EXTT8=
EXTT9=
EXTT10=
EXTT11=
EXTT12=
EXTT13=
EXTT14=
EXTT15=
EXTT16=
EXTT17=
EXTT18=
EXTT19=
PLAYORDER=
